<?xml version="1.0" encoding="UTF-8"?><!DOCTYPE svg PUBLIC "-//W3C//DTD SVG 1.1//EN" "http://www.w3.org/Graphics/SVG/1.1/DTD/svg11.dtd"><svg xmlns="http://www.w3.org/2000/svg"><symbol id="close" viewBox="0 0 512 512"><path fill-rule="evenodd" clip-rule="evenodd" d="M512 42.671L469.329 0 256 213.329 42.671 0 0 42.671 213.329 256 0 469.329 42.671 512 256 298.671 469.329 512 512 469.329 298.671 256z"/></symbol><symbol id="facebook" viewBox="0 90 612 612"><path d="M535.5 90h-459C34.31 90 0 124.31 0 166.5v459C0 667.689 34.31 702 76.5 702H306V491.625h-76.5V396H306v-76.5c0-63.38 51.37-114.75 114.75-114.75h76.5v95.625H459c-21.114 0-38.25-1.989-38.25 19.125V396h95.625l-38.25 95.625H420.75V702H535.5c42.189 0 76.5-34.311 76.5-76.5v-459c0-42.19-34.311-76.5-76.5-76.5z"/></symbol><symbol id="instagram" viewBox="0 90 612 612"><path d="M420.75 90h-229.5C85.642 90 0 175.642 0 281.25v229.5C0 616.358 85.642 702 191.25 702h229.5C526.358 702 612 616.358 612 510.75v-229.5C612 175.642 526.358 90 420.75 90zm133.875 420.75c0 73.822-60.053 133.875-133.875 133.875h-229.5c-73.822 0-133.875-60.053-133.875-133.875v-229.5c0-73.822 60.053-133.875 133.875-133.875h229.5c73.822 0 133.875 60.053 133.875 133.875v229.5z"/><path d="M306 243c-84.494 0-153 68.506-153 153s68.506 153 153 153 153-68.506 153-153-68.506-153-153-153zm0 248.625c-52.708 0-95.625-42.916-95.625-95.625 0-52.747 42.917-95.625 95.625-95.625 52.709 0 95.625 42.878 95.625 95.625 0 52.709-42.916 95.625-95.625 95.625z"/><circle cx="470.475" cy="231.525" r="20.387"/></symbol><symbol id="linkdin" viewBox="0 9.558 430.117 411.001"><path d="M430.117 261.543V420.56h-92.188V272.193c0-37.271-13.334-62.708-46.702-62.708-25.474 0-40.633 17.142-47.302 33.724-2.432 5.929-3.058 14.179-3.058 22.478V420.56h-92.219s1.242-251.285 0-277.319h92.209v39.309c-.187.294-.43.611-.605.896h.605v-.896c12.252-18.869 34.131-45.824 83.103-45.824 60.673-.002 106.157 39.635 106.157 124.817zM52.183 9.558C20.635 9.558 0 30.251 0 57.463c0 26.619 20.038 47.94 50.959 47.94h.616c32.159 0 52.159-21.317 52.159-47.94-.606-27.212-20-47.905-51.551-47.905zM5.477 420.56h92.184V143.24H5.477v277.32z"/></symbol><symbol id="twitter" viewBox="0 147.375 612 497.25"><path d="M612 206.242c-22.759 9.983-47.01 16.601-72.293 19.813 26.011-15.529 45.862-39.933 55.195-69.347-24.251 14.458-51.025 24.671-79.561 30.371-23.026-24.519-55.845-39.704-91.646-39.704-69.462 0-125.384 56.38-125.384 125.498 0 9.945.842 19.508 2.907 28.611-104.308-5.087-196.605-55.08-258.608-131.236-10.825 18.781-17.174 40.277-17.174 63.418 0 43.452 22.376 81.97 55.73 104.27-20.158-.382-39.933-6.235-56.687-15.453v1.377c0 60.971 43.49 111.613 100.521 123.28-10.213 2.792-21.343 4.131-32.895 4.131-8.033 0-16.142-.459-23.753-2.143 16.256 49.688 62.386 86.216 117.236 87.401-42.687 33.393-96.887 53.512-155.563 53.512-10.29 0-20.158-.459-30.026-1.721 55.577 35.84 121.444 56.304 192.474 56.304 230.876 0 357.102-191.25 357.102-357.025 0-5.546-.191-10.901-.459-16.218C574.018 253.71 594.94 231.64 612 206.242z"/></symbol><symbol id="youtube" viewBox="0 185.625 612 420.75"><path d="M585.99 226.17c-16.601-29.529-34.616-34.96-71.298-37.026-36.644-2.486-128.788-3.519-208.616-3.519-79.98 0-172.163 1.033-208.768 3.481-36.605 2.104-54.659 7.497-71.413 37.064C8.797 255.661 0 306.457 0 395.885v.306C0 485.237 8.797 536.416 25.895 565.6c16.754 29.529 34.77 34.884 71.375 37.37 36.644 2.142 128.826 3.404 208.807 3.404 79.828 0 171.973-1.263 208.654-3.366 36.682-2.486 54.697-7.841 71.298-37.37C603.279 536.454 612 485.275 612 396.229v-.191-.115c0-89.466-8.721-140.262-26.01-169.753zM229.5 510.75v-229.5L420.75 396 229.5 510.75z"/></symbol></svg>